<svg xmlns="http://www.w3.org/2000/svg" xmlns:xlink="http://www.w3.org/1999/xlink" viewBox="0 0 967.49 634.39"><defs><style>.cls-1{fill:#b8c1cd;opacity:0.3;}.cls-2{fill:url(#linear-gradient);}.cls-3{fill:url(#linear-gradient-2);}.cls-4{fill:#4c6db1;}.cls-5{fill:url(#linear-gradient-3);}.cls-6{fill:url(#linear-gradient-4);}.cls-7{fill:url(#linear-gradient-5);}.cls-8{fill:url(#linear-gradient-6);}.cls-9{fill:#232e63;}.cls-10{fill:url(#linear-gradient-7);}.cls-11{fill:url(#linear-gradient-8);}.cls-12{fill:url(#linear-gradient-9);}</style><linearGradient id="linear-gradient" x1="479.24" y1="376.14" x2="488.61" y2="200.71" gradientUnits="userSpaceOnUse"><stop offset="0" stop-color="#9db3d3"/><stop offset="0.36" stop-color="#92abcf"/><stop offset="0.99" stop-color="#7495c3"/><stop offset="1" stop-color="#7495c3"/></linearGradient><linearGradient id="linear-gradient-2" x1="608.8" y1="267.12" x2="635.23" y2="240.05" gradientUnits="userSpaceOnUse"><stop offset="0" stop-color="#9db3d3"/><stop offset="0.1" stop-color="#9bb1d2" stop-opacity="0.95"/><stop offset="0.28" stop-color="#95add0" stop-opacity="0.81"/><stop offset="0.51" stop-color="#8ca6cc" stop-opacity="0.58"/><stop offset="0.79" stop-color="#7f9dc7" stop-opacity="0.26"/><stop offset="1" stop-color="#7495c3" stop-opacity="0"/></linearGradient><linearGradient id="linear-gradient-3" x1="648.61" y1="574.12" x2="648.61" y2="324.17" gradientUnits="userSpaceOnUse"><stop offset="0" stop-color="#7495c3"/><stop offset="0.28" stop-color="#698abd"/><stop offset="0.77" stop-color="#4c6cac"/><stop offset="1" stop-color="#3c5ca3"/></linearGradient><linearGradient id="linear-gradient-4" x1="231.47" y1="458.68" x2="251.83" y2="314.93" gradientUnits="userSpaceOnUse"><stop offset="0" stop-color="#7495c3"/><stop offset="0.24" stop-color="#6a8abc"/><stop offset="0.66" stop-color="#4e6caa"/><stop offset="1" stop-color="#345098"/></linearGradient><linearGradient id="linear-gradient-5" x1="476.6" y1="496.05" x2="480.41" y2="377.89" gradientUnits="userSpaceOnUse"><stop offset="0" stop-color="#7495c3"/><stop offset="0.22" stop-color="#6a8abc"/><stop offset="0.61" stop-color="#506caa"/><stop offset="1" stop-color="#304894"/></linearGradient><linearGradient id="linear-gradient-6" x1="501.12" y1="683.8" x2="516.24" y2="455.19" gradientUnits="userSpaceOnUse"><stop offset="0" stop-color="#7495c3"/><stop offset="0.19" stop-color="#6b8aba"/><stop offset="0.52" stop-color="#536ca2"/><stop offset="0.96" stop-color="#2b3c7a"/><stop offset="1" stop-color="#273776"/></linearGradient><linearGradient id="linear-gradient-7" x1="139.36" y1="231.8" x2="96.68" y2="245.38" xlink:href="#linear-gradient-2"/><linearGradient id="linear-gradient-8" x1="307.72" y1="355.53" x2="302.04" y2="370.52" gradientUnits="userSpaceOnUse"><stop offset="0" stop-color="#7495c3"/><stop offset="0.11" stop-color="#7192c1" stop-opacity="0.94"/><stop offset="0.29" stop-color="#6889bc" stop-opacity="0.79"/><stop offset="0.54" stop-color="#5a7bb4" stop-opacity="0.54"/><stop offset="0.83" stop-color="#4768aa" stop-opacity="0.2"/><stop offset="0.99" stop-color="#3c5ca3" stop-opacity="0"/></linearGradient><linearGradient id="linear-gradient-9" x1="414.77" y1="460.53" x2="417.28" y2="422.57" xlink:href="#linear-gradient-6"/></defs><g id="Layer_2" data-name="Layer 2"><g id="Layer_1-2" data-name="Layer 1"><path class="cls-1" d="M.57,108.9s45.53,1.26,66.17,0a421.25,421.25,0,0,0,41.91-5.08,452.51,452.51,0,0,1,82.54-4.44c43.85,1.9,104.46-1.27,104.46-1.27s41.27,2.54,72.23,2.54,97.37,8.25,97.37,8.25h78.67L367.23,77.18s-31-11.42-53.52-12.69-63.49-1.91-63.49-1.91l-90.63-3.17L93.17,56.24.23,50.53V0S267.28,39.11,286,35.94s61.26-1.9,91.57-2.54,32.88-1.9,56.74-4.44S527.8,51.17,565.84,56.88,742.53,78.44,774.77,80.35,967.49,81,967.49,81v37.76s-116.63-8.58-152.74-7.31S700,118.74,700,118.74,640,133,598.08,136.81s-129-2.54-163.14-7-203.77-10.12-240.53-11.09-87,7.92-87,7.92L.57,138Z"/><path class="cls-1" d="M466.54,0s119.29,27.69,158,30.87,51.59-2.54,92.21-.64,55.46,0,85.77,3.17,90.27,10.79,90.27,10.79l74.72,7V0Z"/><path class="cls-2" d="M.23,181.09s30.63,13.38,35.91,13.38S66.37,187,87.53,181.09s49.87-9.66,49.87-9.66,25.69-23.79,34.76-23.79,34.76,18.58,38.54,20.81,14.35,3.72,14.35,3.72l11.34-2.23s28.71,5.21,43.07,4.46,24.93-2.23,27.2-2.23,18.14.75,18.14.75l62.71-29H406.4S423.78,138,426.05,138s31,23,31,23h26.83l12.46,3,12.09,11.16,20.41,4.46,37.78,8.17s46.09,2.23,68-5.94,34-11.16,34-11.16l16.62-2.23L698.08,163,714,167l26.44,6.69s53.65,23,57.43,20.07,48.36-10.41,48.36-10.41l31.74-10.4L899.83,166l39.3,9.16,28.36,5.94V398.16H.23Z"/><path class="cls-3" d="M562.88,238.26s24.72,5.82,30.1,0-6.45-8.46-6.45-8.46,1.07-7.4-1.62-10-6.28-9.52-6.28-9.52,13.92,10,15.75,11.1-6.66,5.82,0,7.93,13.11,8.46,18.48,9,14.51,3.58,16.66,2.59,26.33-4.18,26.33-4.18-16.12,7.94-16.12,13.22,7,10.05,13.44,16.39l21.49,21.15s-30.63-13.75-41.92-22.2-17.19-15.34-28.48-15.34S562.88,238.26,562.88,238.26Z"/><path class="cls-4" d="M.57,244.66s31.24,7.21,43.28,8.68,51.59,0,51.59,0l66.13,10,91.21,21.12,98.87-39.76,70.5-14.38,44.71-18.61L517,214.21l50.49,19.46,44.71,19.67,56.74,10.78,80,26.22,62.77,5.92s22.35-16.92,36.11-21.15,48.15-13.53,48.15-13.53l71.59-64.29V439.21H0Z"/><path class="cls-5" d="M967.49,271.17s-21.57,35.53-33,36.68-31.71,20.63-31.71,20.63L877,335.23l-37.83,5.86s-43.62-6.88-68.82-18.34-28.46-28.65-55.28-28.65-28.45-5.74-49.59-1.15-49.59,5.73-49.59,5.73-35,6.88-57.72-6.88-31.84-29.92-59.47-31.07-37.11-16-61.91,0-75.66,43.14-75.66,43.14l-7,29.19L329.72,351.4V457.82H967.49Z"/><path class="cls-6" d="M.23,343.42s24.54-9.88,45-19.76,69.53-31.06,69.53-31.06,61.36-43.76,85.91-43.76S259,263,259,263s38.86,9.88,48.06,9.88,6.14,11.3,30.68,11.3,32.73-4.24,46,2.82,32.72,9.18,32.72,9.18l35.8,33.17s21.47,21.18,31.7,26.83,7.16,16.94,7.16,16.94-77.72,31.05-124.77,31.05H.23Z"/><path class="cls-7" d="M.57,388.52s113.16-43.52,140.15-46,35.69-13.39,76.6-2.51,106.2,31,125.35,30.14,41.79-11.72,81-19.25,52.23-19.26,88.79-9.21,58.91,26,79.08,26,22.77-5,41.92,0,33.08,5.86,48.75,7.53,32.2,4.19,53.09,7.53S807.52,348.34,837.11,350s54.84,19.25,71.38,25.11,50.17,41.66,50.17,41.66L872.8,480.6,44.1,486.46Z"/><path class="cls-8" d="M82,427.09S127.86,419,153.87,419s63.65,3.36,97.19-6.74,39-9.43,71.18-5.39,71.34,10.23,71.34,10.23,47.06,8,71.7,10,57.5,0,57.5,0,56.8-10.1,83.5-7.41,38.33,18.18,69.13,23.57,49.27,9.42,64.33,8.08,37-14.14,63-20.88,50-19.52,113.62,4.72,22.58,38.38,22.58,38.38-192.32,84.16-343.58,92.24S266.8,563.1,266.8,563.1L110.06,524.72Z"/><path class="cls-9" d="M.23,369.9a94.81,94.81,0,0,1,15.27,0c9.29.65,19.47,21.55,21.91,22.21a5.63,5.63,0,0,1,4.2,4.35c.44,2,6.64,14.59,9.74,16.11s3.76.22,5.31,2,3.54,3.05,3.54,1.09,3.1-12.19,6.19-7.62,3.32,15,6,14.15,6.2-5.45,10.18-5.55,6.86-1,7.52-1.64,5.53-4.57,9.08-5.44,4.42-3.92,8.63-4.79,12.61,1.09,13.49,3,3.32,7.18,6.2,8.05,3.1,5.23,5.75,8.28,13.28,8.05,19.7,13.06,10.18,9.14,12.17,8.93,1.77-3.05,1.77-3.05l1.33-2.83h3.32l.66,2.61v3.27l-.88,2,3.32,2.83s6.19,7.18,11.5,7.61,4.21-2.17,8.85,0,5.09,1.75,11.07,2.4,10-2.83,15.49-2.61,13.94,2.34,18.59,2.69,8.41-.3,11.28,1,4.21,2.61,8.63,5.44,16.16,3.92,23.9,8.71,26.34,19.16,33,21.33,41.39,15.46,47.58,15.9,5.53-2,11.29,0,31.86,12,47.8,11.32,54.66,1.15,69.92,0,20.58-3.73,28.11-6.78,29.43-6.53,38.28-7.62,14.61-4.79,23.46-3.92,26.33,8.05,34.08,11.54,36.73,11,49,8.71S681,518.16,695,515.54s33.19,2.94,43.48.66S761,504.77,761,504.77s10.63-3.6,13-6.53,13.94-12.41,13.94-12.41,13.61-4.57,24.56-4.57,21.25-7.84,21.25-7.84,29.54-1.31,42.82-9.8,23.23-15.28,23.23-15.28,43.49-26.52,49.46-33.7,18.26-11.11,18.26-11.11V634.39H.23Z"/><path class="cls-10" d="M82,214.21s16,13.54,22.89,16.92S127.25,243,127.25,243l28.5,19.45s-39.36-9.3-51.12-19.45A87.25,87.25,0,0,0,82,228.59Z"/><path class="cls-11" d="M207.93,337.74c11,5.46,31.69,14.87,53.46,20.48,32,8.25,54.65,16.33,73.35,19.72s65.72,15.17,65.51,14.54-40.84-12.64-49-15.65c-7.61-2.81-13-4.13-9.1-6.72-19.77.48-84.26-19.35-124.82-30.14C214,339.08,210.87,338.35,207.93,337.74Z"/><path class="cls-12" d="M511.59,449.46c-15.8-6-40.95-20-43.85-22.19h0l-2.46-.18c-24.64-2-71.7-10-71.7-10s-39.17-6.18-71.34-10.23c0,0,128.41,23.87,136.15,27.52S511.59,449.46,511.59,449.46Z"/></g></g></svg>